<?xml version="1.0" encoding="utf-8"?>
<!-- Generator: Adobe Illustrator 19.0.0, SVG Export Plug-In . SVG Version: 6.00 Build 0)  -->
<svg version="1.1" id="Calque_1" xmlns="http://www.w3.org/2000/svg" xmlns:xlink="http://www.w3.org/1999/xlink" x="0px" y="0px"
	 viewBox="-322.5 67.6 693 387" style="enable-background:new -322.5 67.6 693 387;" xml:space="preserve">
<style type="text/css">
	.st0{fill:#FFFFFF;}
</style>
<path class="st0" d="M-293.3,454.6h634.5c16.1,0,29.2-11,29.2-24.5v-15.6c0-13.5-13.1-24.5-29.2-24.5h-634.5
	c-16.1,0-29.2,11-29.2,24.5v15.6C-322.5,443.6-309.4,454.6-293.3,454.6z M-293.3,293.3h634.5c16.1,0,29.2-11,29.2-24.5v-15.6
	c0-13.5-13.1-24.5-29.2-24.5h-634.5c-16.1,0-29.2,11-29.2,24.5v15.6C-322.5,282.3-309.4,293.3-293.3,293.3z M-322.5,92.1v15.6
	c0,13.5,13.1,24.5,29.2,24.5h634.5c16.1,0,29.2-11,29.2-24.5V92.1c0-13.5-13.1-24.5-29.2-24.5h-634.5
	C-309.4,67.6-322.5,78.5-322.5,92.1z"/>
</svg>
